<?xml version="1.0" encoding="UTF-8"?>
<svg width="752pt" height="752pt" version="1.1" viewBox="0 0 752 752" xmlns="http://www.w3.org/2000/svg">
 <path d="m529 303.52c-1.4492-2.1797-4.3828-2.7852-6.5625-1.332-2.1836 1.4414-2.7812 4.3828-1.3359 6.5625 0.15234 0.22656 3.6055 5.6406-3.7266 11.391-0.28516 0.22656-0.57422 0.44531-0.86328 0.65625-0.007813-0.054687-0.023437-0.10547-0.035156-0.16016-2.3047-9.9102-7.6914-12.457-10.695-13.094-4.7188-0.99219-9.9023 1.1875-13.199 5.5742-2.8906 3.8359-3.4727 8.2734-1.5625 11.871 2.4375 4.5859 6.6953 7.8242 11.688 8.8828 0.76953 0.16406 1.6133 0.28906 2.5391 0.35156-3.6289 5.4297-10.152 8.1797-11.809 8.8086-15.789-36.008-60.984-60.48-102.71-64.062-10.781-0.91797-22.375-0.41016-34.477 1.5273-0.64453 0.10938-1.332-0.089844-1.8867-0.53125-28.309-22.578-61.496-19.883-74.465-17.68-4.5938 0.78516-7.9023 4.9453-7.6953 9.6758 0.65234 15.195 8.7461 26.387 15.422 33.102 0.60938 0.61328 0.65625 1.3125 0.62891 1.6758-0.027344 0.37891-0.17969 1.0977-0.92188 1.6484-12.773 9.543-21.742 20.266-26.645 31.871-0.33203 0.78516-1.1992 1.3828-2.2109 1.5234l-21.145 2.9375c-6.125 0.85156-10.641 6.1406-10.508 12.297 0.24609 11.379 2.5312 33.254 15.066 51.926 1.8008 2.6797 4.5547 4.6367 7.7617 5.5078 3.8125 1.0352 9.7383 2.3164 16.336 2.5312 1.6016 0.050781 2.9844 0.82031 3.7969 2.1094 3.3359 5.293 10.793 15.242 24.332 24.68l-6.8438 24.418c-1.3398 4.7969-0.38281 9.8242 2.6211 13.789 3.0117 3.9648 7.5898 6.2422 12.57 6.2422h31.527c8.6992 0 15.773-7.0742 15.773-15.773v-7.8398c7.7344 1.1719 15.496 1.8281 23.578 2.0078 9.9531 0.20703 19.719-0.32422 29.004-1.6172l-0.62109 5.7617c-0.48047 4.4453 0.95703 8.9023 3.9453 12.227 2.9883 3.3281 7.2656 5.2344 11.738 5.2344h27.766c6.5078 0 12.418-4.0508 14.711-10.078 3.5938-9.4492 7.9688-24.25 8.8047-41.902 20.398-18.145 31.508-42.945 30.543-68.367-0.20703-5.5-1.125-10.809-2.5938-15.934 6.8672-2.4922 17.27-9.1602 19.906-20.113 2.1016-1.0078 4.3281-2.3789 6.6719-4.2148 11.305-8.8828 8.7227-19.641 5.7773-24.09zm-220.38 45.871c-6.2109 0-11.246-5.0352-11.246-11.246 0-6.2109 5.0352-11.246 11.246-11.246 6.2109 0 11.246 5.0352 11.246 11.246 0 6.2109-5.0352 11.246-11.246 11.246zm104.96 60.156c-4.3125 3.4414-10.066 5.457-17.023 6.1562v9.1719c0 1.6133-1.3086 2.9219-2.9219 2.9219h-4.7656c-1.6133 0-2.9258-1.3086-2.9258-2.9219v-9.1992c-2.3203-0.27344-4.5781-0.67578-6.6953-1.3164-3.7695-1.1367-7.082-2.8984-9.8594-5.2422-2.7969-2.3594-5.0117-5.3203-6.5742-8.793-1.5469-3.4492-2.3281-7.5195-2.3281-12.09 0-1.6211 1.3086-2.9297 2.9297-2.9297h7.0156c1.5234 0 2.793 1.168 2.918 2.6875 0.24609 2.9922 0.91016 5.5312 1.9609 7.543 1.0312 1.9805 2.3633 3.5977 3.9609 4.8164 1.6289 1.2461 3.5586 2.168 5.7148 2.7383 4.9336 1.3047 11.266 1.1797 15.301-0.20703 2.0781-0.71094 3.7578-1.6602 5.0078-2.8203 1.2461-1.1602 2.1328-2.4531 2.7227-3.9648 0.60547-1.5664 0.91406-3.2461 0.91406-4.9961 0-2.3242-0.49219-4.1719-1.4609-5.4961-1.0742-1.4766-2.5195-2.7109-4.2852-3.6641-1.9414-1.0508-4.2109-1.9102-6.7578-2.5508-2.7812-0.70312-5.625-1.3906-8.543-2.0586-3.0156-0.6875-5.9961-1.5195-8.8672-2.4648-3.0664-1.0078-5.8359-2.3945-8.2344-4.1289-2.5-1.8008-4.5547-4.1445-6.1094-6.9648-1.5781-2.8594-2.3789-6.4609-2.3789-10.707 0-3.0195 0.64062-5.9922 1.8984-8.8359 1.2656-2.8594 3.1602-5.4141 5.625-7.5977 2.4336-2.1523 5.4922-3.8828 9.1016-5.1367 2.1094-0.73438 4.5234-1.1875 7.0195-1.4844v-9.6758c0-1.6133 1.3086-2.9219 2.9258-2.9219h4.7656c1.6133 0 2.9219 1.3086 2.9219 2.9219v9.7227c2.4805 0.32031 4.8633 0.79688 6.9297 1.5664 3.5938 1.3398 6.6367 3.2227 9.0469 5.5938 2.4102 2.3672 4.25 5.168 5.4648 8.3125 1.1836 3.0781 1.7852 6.3984 1.7852 9.8711 0 1.6211-1.3086 2.9297-2.9297 2.9297h-6.9023c-1.6211 0-2.9297-1.3086-2.9297-2.9297 0-2.4414-0.42188-4.5508-1.2539-6.2617-0.82422-1.7188-1.918-3.0742-3.3281-4.1562-1.4688-1.1133-3.1797-1.9492-5.0742-2.4844-5.0938-1.4258-10.871-0.96875-14.402 0.47656-2.1016 0.85547-3.7578 1.9492-4.9492 3.2461-1.1914 1.3047-1.9844 2.6953-2.4336 4.2461-0.44531 1.5664-0.52734 3.082-0.24609 4.6211 0.32031 1.8906 1.0117 3.3047 2.1133 4.3555 1.293 1.2344 2.9297 2.2734 4.8516 3.082 2.1016 0.88672 4.4531 1.6211 6.9805 2.1758 2.7422 0.60547 5.5391 1.2461 8.3828 1.9219 2.9414 0.69922 5.8086 1.5352 8.5195 2.4766 2.9297 1.0117 5.5781 2.4102 7.875 4.1484 2.4102 1.8281 4.3555 4.1836 5.7852 7.0156 1.4414 2.8398 2.1758 6.3789 2.1758 10.516 0 7.9961-2.8398 14.305-8.4336 18.766zm91.078-84.949c-2.2773-0.48047-4.1523-1.9258-5.2773-4.0234-0.16797-0.76172 1.418-3.2578 3.5664-3.7422 0.14844-0.03125 0.28516-0.046876 0.42578-0.046876 2.2227 0 3.4375 4.1289 3.8711 5.9922 0.15234 0.66406 0.26172 1.3125 0.33203 1.9453-1.0273 0.10938-2.0078 0.070313-2.918-0.125z" fill="#fbc8c5"/>
</svg>
