<?xml version="1.0" encoding="UTF-8"?>
<svg width="752pt" height="752pt" version="1.1" viewBox="0 0 752 752" xmlns="http://www.w3.org/2000/svg">
 <g fill="#023856">
  <path d="m267.84 367.7c-26.598 0-48.234 21.637-48.234 48.234 0 26.598 21.637 48.23 48.234 48.23s48.23-21.633 48.23-48.23c0.003906-26.598-21.633-48.234-48.23-48.234z"/>
  <path d="m372.8 561.16c0-40.293-32.781-73.074-73.074-73.074l-63.762 0.003906c-40.293 0.003906-73.074 32.781-73.074 73.07v24.969h209.91z"/>
  <path d="m516.62 170.61h-104.97c-40.035 0-72.492 32.453-72.492 72.492v165.52c0 3.7695 3.0859 6.2695 6.3047 6.2695 1.5391 0 3.1055-0.56641 4.3789-1.8477l50.762-50.762c1.1758-1.1758 2.7656-1.832 4.4219-1.832h111.59c40.043 0 72.496-32.457 72.496-72.492v-44.859c0-40.031-32.453-72.484-72.492-72.484z"/>
 </g>
</svg>
