<?xml version="1.0" encoding="UTF-8"?>
<svg width="752pt" height="752pt" version="1.1" viewBox="0 0 752 752" xmlns="http://www.w3.org/2000/svg">
 <path d="m564.49 485.87v5.6797c0 1.8945-0.47266 3.7891-0.47266 5.6836-0.47266 3.7891-1.4219 7.5781-2.8398 11.367-2.3672 7.5781-6.1562 14.68-10.418 20.836-4.7344 6.1562-9.9453 11.84-15.629 16.102-6.1562 4.2617-12.312 8.0508-18.941 10.418-6.6289 2.3672-13.262 4.2617-20.363 4.7344-3.7891 0.47266-6.6289 0-9.4727 0-3.7891 0-6.6289-0.47266-9.9453-0.94531-12.312-2.3672-23.68-7.5781-32.203-13.734-8.5234-6.6289-14.68-14.207-19.418-21.312-4.7344-7.1055-7.1055-14.207-8.5234-20.363-1.4258-2.3633-2.375-5.2031-2.375-7.5703-0.47266-2.3672-0.47266-4.2617-0.47266-6.1562v-5.2109s0 1.8945 0.47266 5.2109c0 1.4219 0.47266 3.7891 0.94531 6.1562 0.47266 2.3672 0.94531 5.2109 1.8945 8.0508 1.8945 5.6836 4.2617 12.785 9.4727 19.418 4.7344 6.6289 11.84 13.734 20.363 18.941 8.9961 5.2109 19.418 8.5234 30.781 8.9961h8.5234c2.8398-0.47266 6.1562-0.47266 8.9961-1.4219 5.2109-0.94531 11.367-3.3164 16.574-6.1562 5.2109-2.8398 9.9453-6.1562 14.68-10.418 4.2617-4.2617 8.0508-8.9961 11.367-14.207s5.6836-10.891 7.1055-16.574c0.47266-2.8398 1.4219-5.6836 1.8945-8.9961 0-1.4219 0.47266-2.8398 0.47266-4.7344v-4.2578c0-7.5781-0.94531-11.84-2.3672-17.996-1.8945-5.6836-4.2617-11.367-7.1055-16.574-6.1562-10.418-15.156-18.941-26.047-24.152-10.418-5.6836-22.258-8.0508-33.625-7.5781-5.2109 0.47266-10.891 0.94531-16.102 2.8398-5.2109 1.4219-9.9453 3.7891-14.207 6.1562-8.9961 5.2109-15.629 11.84-20.363 18.941-5.2109 6.6289-7.5781 13.734-9.4727 19.418-0.94531 2.8398-1.4219 5.6836-1.8945 8.0508-0.47266 2.3672-0.47266 4.2617-0.94531 6.1562 0 3.3164-0.47266 5.2109-0.47266 5.2109v-5.2109c0-1.4219 0.47266-3.7891 0.47266-6.1562 0.47266-2.3672 0.94531-5.2109 1.4219-8.0508 1.4219-5.6836 3.7891-12.785 8.5234-20.363 4.2617-7.1055 10.891-15.156 19.418-21.312 8.5234-6.6289 19.418-11.367 32.203-14.207 12.312-2.3672 26.52-1.4219 39.781 3.7891 6.6289 2.3672 13.262 6.1562 19.418 10.418 5.6836 4.7344 11.367 9.9453 15.629 16.574 4.2617 6.1562 8.0508 13.262 10.418 20.836 0.94531 3.7891 2.3672 7.5781 2.8398 11.84 0.94531 4.2617 0.47266 7.5781 0.94531 10.891-0.9375 1.4219-0.9375 0.94531-0.9375 0.94531zm-156.29 5.2109v2.3672c-7.1055-0.47266-13.734-0.47266-20.836-0.94531l-32.203-1.8945c-10.891-0.47266-21.312-1.4219-32.203-1.4219-10.891-0.47266-21.312-0.47266-32.203-0.47266-10.891 0-21.312 0-32.203 0.47266-10.891 0.47266-21.312 0.94531-32.203 1.8945l-4.7344 0.47266-0.47266-5.6836c-1.4219-17.996-2.8398-35.52-2.8398-53.516-0.47266-17.996 0-35.52 0-53.516l0.94531-26.52c0.47266-8.9961 0.94531-17.996 1.4219-26.52 0.47266-8.9961 0.94531-17.996 1.8945-26.52 0.47266-8.5234 1.4219-17.051 2.8398-25.574-6.1562-0.47266-11.367-1.4219-15.629-2.3672-8.9961-1.4219-13.734-2.8398-13.734-2.8398v-1.8945s5.2109-1.4219 13.734-2.8398c8.9961-1.4219 21.312-3.3164 36.465-4.2617 7.5781-0.47266 15.629-0.94531 24.625-0.47266 3.7891 0 8.0508 0.47266 11.84 0.94531-0.94531-0.94531-2.3672-1.8945-3.3164-2.8398l-0.94531-0.94531h-0.47266l-0.94531-0.94531-0.003906-2.375c-0.94531-0.94531-2.3672-2.8398-3.3164-3.7891-4.2617-5.2109-8.0508-11.367-10.891-17.996-1.4219-3.3164-2.3672-6.6289-3.3164-10.418-0.47266-3.7891-0.94531-8.0508 0.47266-12.312 0.94531-2.3672 1.8945-4.7344 3.7891-6.1562l0.94531-0.94531h0.47266l0.94531-0.47266c0.94531-0.47266 2.3672-0.94531 3.7891-1.4219 4.2617-0.94531 8.0508 0 11.367 1.4219 6.6289 2.3672 11.84 6.1562 17.051 9.9453 2.3672 1.8945 4.7344 4.2617 7.1055 6.1562 2.3672 2.3672 4.7344 4.2617 7.1055 6.6289-2.3672-2.3672-4.7344-4.2617-7.1055-6.1562-2.3672-1.8945-5.2109-3.7891-8.0508-5.2109-2.8398-1.4219-5.6836-2.8398-8.5234-3.7891-2.8398-0.94531-5.6836-1.8945-8.9961-1.8945-2.8398 0-5.6836 0.47266-7.1055 1.4219l-1.418 1.418 0.47266-0.47266v0.47266c-0.47266 0.47266 0 1.4219 0 2.3672 0 1.8945 0.94531 4.2617 1.8945 6.1562 0.94531 2.3672 2.3672 4.7344 3.7891 7.1055 1.4219 2.3672 3.3164 4.7344 4.7344 6.6289 1.8945 2.3672 3.7891 4.2617 5.6836 6.6289 0.94531 0.94531 1.8945 1.8945 2.8398 3.3164l1.4219 1.8945 0.94531 0.94531c1.8945 1.8945 3.7891 3.3164 6.1562 5.2109 1.8945 1.8945 4.2617 2.8398 6.6289 4.2617 2.3672 1.4219 4.7344 2.8398 7.5781 3.7891 2.8398 1.4219 5.2109 2.3672 8.0508 3.3164 0.94531 0.47266 2.3672 0.94531 3.3164 0.94531v-4.7344c0-0.94531 0-2.3672 0.47266-3.3164-0.47266-3.3164-0.94531-6.6289-1.8945-9.4727-0.47266-1.8945-0.94531-3.7891-1.8945-5.6836-0.47266-0.94531-0.94531-1.8945-1.4219-2.8398-0.47266-0.94531-0.94531-1.8945-1.4219-2.8398-0.94531-1.8945-1.8945-3.3164-3.3164-5.2109-0.94531-1.8945-2.8398-3.3164-3.7891-4.7344 1.4219 1.4219 2.8398 2.8398 4.2617 4.7344 1.4219 1.4219 2.3672 3.3164 3.7891 4.7344 0.94531 1.8945 2.3672 3.3164 3.3164 5.2109 0.94531 1.8945 1.8945 3.7891 2.8398 5.6836 0 0.47266 0.47266 0.94531 0.47266 1.4219 0.47266-2.8398 1.4219-5.2109 2.3672-8.0508 0.94531-3.3164 2.8398-6.6289 4.2617-9.9453 1.8945-3.3164 3.7891-6.1562 6.6289-8.9961l0.94531-0.94531v-0.47266l0.94531-0.94531 1.8945-1.4219c0.94531-0.94531 2.8398-2.3672 3.7891-3.3164 5.2109-4.2617 11.367-8.0508 17.996-10.891 3.3164-1.4219 6.6289-2.3672 10.418-3.3164 3.7891-0.47266 8.0508-0.94531 12.312 0.47266 2.3672 0.94531 4.7344 1.8945 6.1562 3.7891l0.94531 0.94531v0.47266l0.47266 0.94531c0.47266 0.94531 0.94531 2.3672 1.4219 3.7891 0.94531 4.2617 0 8.0508-1.4219 11.367-2.3672 6.6289-6.1562 11.84-9.9453 17.051-1.8945 2.3672-4.2617 4.7344-6.1562 7.1055-2.3672 2.3672-4.2617 4.7344-6.6289 7.1055 2.3672-2.3672 4.2617-4.7344 6.1562-7.1055 1.8945-2.3672 3.7891-5.2109 5.2109-8.0508 1.4219-2.8398 2.8398-5.6836 3.7891-8.5234 0.94531-2.8398 1.8945-5.6836 1.8945-8.9961 0-2.8398-0.47266-5.6836-1.4219-7.1055l-1.418-1.418 0.47266 0.47266h-0.47266c-0.47266-0.47266-1.4219 0-2.3672 0-1.8945 0-4.2617 0.94531-6.1562 1.8945-2.3672 0.94531-4.7344 2.3672-7.1055 3.7891-2.3672 1.4219-4.7344 3.3164-6.6289 4.7344-2.3672 1.8945-4.2617 3.7891-6.6289 5.6836-0.94531 0.94531-1.8945 1.8945-3.3164 2.8398l-1.8945 1.4219-0.94531 0.94531c-1.8945 1.8945-3.3164 3.7891-5.2109 6.1562-1.8945 1.8945-2.8398 4.2617-4.2617 6.6289-1.4219 2.3672-2.8398 4.7344-3.7891 7.5781-1.4219 2.8398-2.3672 5.2109-3.3164 8.0508-0.47266 1.4219-0.94531 2.8398-1.4219 4.2617h5.6836c3.7891-0.47266 8.0508-0.94531 11.84-1.8945 1.8945-0.47266 3.7891-0.94531 5.6836-1.8945 0.94531-0.47266 1.8945-0.94531 2.8398-1.4219 0.94531-0.47266 1.8945-0.94531 2.8398-1.4219 1.8945-0.94531 3.3164-1.8945 5.2109-3.3164 1.8945-0.94531 3.3164-2.8398 4.7344-3.7891-1.4219 1.4219-2.8398 2.8398-4.7344 4.2617-1.4219 1.4219-3.3164 2.3672-4.7344 3.7891-1.8945 0.94531-3.3164 2.3672-5.2109 3.3164-1.4219 0.47266-2.3672 1.4219-3.7891 1.8945 0.94531 0 1.4219 0 2.3672-0.47266 9.9453-1.4219 20.363-2.8398 30.309-3.3164 9.9453-0.47266 19.891-0.94531 29.363-1.4219 9.4727-0.47266 18.469-0.47266 27.469 0 8.5234 0.47266 17.051 0.94531 24.625 1.4219 7.5781 0.94531 14.68 1.4219 20.836 2.3672s11.367 1.4219 16.102 2.3672c8.9961 1.4219 13.734 2.8398 13.734 2.8398v1.8945s-5.2109 1.4219-13.734 2.8398c-4.2617 0.94531-9.9453 1.4219-16.102 2.3672-1.8945 0.47266-3.7891 0.47266-5.6836 0.47266 1.8945 17.051 3.3164 34.57 4.2617 51.621 0.94531 17.996 1.8945 35.52 2.8398 53.516 0.47266 9.4727 0.47266 18.469 0.94531 27.941-6.1562-0.47266-12.312 0-17.996 0.94531h-0.47266c0.47266-9.4727 0.47266-18.941 0.94531-28.887 0.47266-14.68 1.4219-29.363 2.3672-44.043-1.4219 0-2.8398 0.47266-4.7344 0.94531-7.1055 0.94531-17.051 2.3672-28.887 3.7891-24.152 2.3672-55.883 3.7891-88.086 4.2617h-18.941c0.47266 7.1055 0.47266 14.207 0.94531 21.312 0.47266 7.5781 0.94531 15.156 1.4219 22.73 0.47266 7.5781 0.94531 14.68 0.94531 21.785 0 14.207-0.94531 27.469-2.3672 38.832-0.47266 5.6836-1.4219 10.891-1.8945 15.629-0.94531 4.7344-1.4219 8.5234-2.3672 11.84-0.47266 2.8398-0.94531 4.7344-1.4219 6.6289 8.0508-0.47266 15.629-0.94531 23.68-1.4219l32.203-1.8945c7.1055-0.47266 13.734-0.47266 20.836-0.94531v2.3672 5.2109c0.019531 0.003906 0.49219 1.8984 0.49219 5.2148zm-75.297-220.21c0 3.3164 0.47266 6.6289 0.47266 10.418 0.47266 11.367 1.4219 24.625 2.3672 38.832v4.7344h19.891c32.203 0 63.934 1.4219 88.086 4.2617 11.84 0.94531 22.258 2.3672 28.887 3.7891 1.8945 0.47266 3.3164 0.47266 4.7344 0.94531 0-2.3672 0.47266-5.2109 0.47266-7.5781 1.4219-17.051 2.3672-34.098 4.2617-51.621-4.2617 0.47266-8.5234 0.94531-12.785 1.4219-7.5781 0.47266-15.629 1.4219-24.625 1.4219-8.5234 0.47266-17.996 0.47266-27.469 0-9.4727-0.47266-19.418-0.94531-29.363-1.4219-9.9453-0.47266-19.891-1.8945-30.309-3.3164-7.5781-0.94531-14.68-1.8945-22.258-1.8945-0.47266 0-0.47266 0-0.94531 0.47266v0.47266zm-101.35 27.469c0.94531 8.9961 1.4219 17.996 1.8945 26.52 0 2.3672 0.47266 5.2109 0.47266 7.5781 1.4219 0 2.8398-0.47266 4.7344-0.94531 7.1055-0.94531 17.051-2.3672 28.887-3.3164 16.102-1.8945 35.992-2.8398 56.828-3.3164 0-1.4219 0-3.3164 0.47266-4.7344 0.47266-14.207 1.4219-27.469 2.3672-38.832 0-3.3164 0.47266-6.6289 0.47266-9.4727h-1.4219v-0.47266h-6.1562c-3.3164 0-6.6289-0.47266-9.9453-0.94531-3.3164 0.47266-7.1055 0.94531-10.418 1.4219-9.4727 1.4219-18.469 2.8398-27.469 3.3164-8.5234 0.47266-17.051 0-24.625-0.47266-6.6289-0.47266-13.262-0.94531-18.941-1.4219 0.95312 8.5156 1.9023 16.566 2.8477 25.094zm96.609 183.75c-0.47266-1.8945-0.94531-3.7891-1.4219-6.6289-0.47266-3.3164-1.4219-7.1055-2.3672-11.84-0.47266-4.7344-1.4219-9.9453-1.8945-15.629-1.4219-11.367-2.3672-24.625-2.3672-38.832 0-7.1055 0.47266-14.207 0.94531-21.785 0.47266-7.5781 0.94531-15.156 1.4219-22.73 0.47266-7.1055 0.47266-14.68 0.94531-21.785-20.836-0.47266-40.254-1.8945-55.883-3.3164-11.84-0.94531-22.258-2.3672-28.887-3.3164-1.8945-0.47266-3.3164-0.47266-4.7344-0.94531 0.47266 5.6836 0.47266 11.367 0.94531 17.051l0.94531 26.52c0.47266 17.996 0.94531 35.52 0 53.516-0.47266 16.102-1.4219 32.203-2.8398 48.777 8.9961 0.47266 17.523 0.94531 26.52 1.4219 10.891 0.47266 21.312 0.47266 32.203 0.47266s21.312-0.47266 32.203-0.47266c1.4258-0.47656 2.8477-0.47656 4.2656-0.47656zm191.33 6.1562h-71.039c-1.8945 0-3.3164 0.47266-4.7344 1.8945 0 0-0.47266 0.47266-0.47266 0.47266-0.94531 0.94531-1.4219 2.3672-1.8945 3.7891v1.4219c0 1.4219 0.94531 3.3164 1.8945 4.7344l23.68 23.68c1.4219 1.4219 3.3164 1.8945 5.2109 1.8945s3.7891-0.47266 5.2109-1.8945c1.4219-1.4219 1.8945-3.3164 1.8945-5.2109s-0.47266-3.7891-1.8945-5.2109l-11.367-11.367h53.988c3.7891 0 7.1055-3.3164 7.1055-7.1055-0.003906-3.7812-3.793-7.0977-7.582-7.0977zm-71.035-4.7344h71.039c1.8945 0 3.3164-0.47266 4.7344-1.8945l0.47266-0.47266c0.94531-0.94531 1.4219-2.3672 1.8945-3.7891v-1.4219c0-1.4219-0.94531-3.3164-1.8945-4.7344l-23.68-23.68c-2.8398-2.8398-7.1055-2.8398-9.9453 0-1.4219 1.4219-1.8945 3.3164-1.8945 5.2109 0 1.8945 0.47266 3.7891 1.8945 5.2109l11.367 11.367-53.988-0.003906c-3.7891 0-7.1055 3.3164-7.1055 7.1055 0 3.7852 3.3164 7.1016 7.1055 7.1016z" fill="#144652"/>
</svg>
