<?xml version="1.0" encoding="UTF-8"?>
<svg width="752pt" height="752pt" version="1.1" viewBox="0 0 752 752" xmlns="http://www.w3.org/2000/svg">
 <path d="m539.39 474.51-101.82-192.28c-3.7891-7.5781-11.367-12.312-19.891-13.262l-75.301-7.1055c-0.47266-17.523-5.6836-36.465-15.156-54.461-10.418-19.891-25.102-35.992-40.727-45.938-18.469-11.84-36.938-13.734-52.094-5.6836s-23.68 24.625-24.625 46.41c-0.47266 18.941 4.7344 39.781 15.156 59.672 9.9453 18.469 22.73 33.152 36.465 43.098l-36.465 66.301c-4.2617 7.5781-4.2617 16.574 0 24.152l102.29 192.27c6.6289 12.312 21.785 17.051 34.098 10.418l167.65-89.5c12.312-6.6328 17.047-21.785 10.418-34.098zm-287.46-227.32c-8.0508-14.68-12.312-30.781-11.84-44.043 0.47266-9.9453 3.3164-17.523 8.0508-19.891 1.4219-0.94531 3.3164-1.4219 5.2109-1.4219 4.2617 0 9.9453 1.8945 16.102 5.6836 11.367 7.1055 22.258 19.418 30.309 34.57 6.6289 12.312 10.418 25.102 11.367 36.938l-6.6289-0.47266c-9.9453-0.94531-19.891 4.2617-24.625 13.262l-3.3164 6.1562c-8.5273-7.1016-17.523-17.047-24.629-30.781zm180.91 255.73c0.94531 1.8945 0.47266 4.2617-1.4219 5.2109l-16.574 8.5234c-1.8945 0.94531-4.2617 0.47266-5.2109-1.4219l-8.9961-16.574c-17.523 8.0508-37.887 1.8945-48.305-13.734-1.4219-1.8945-0.47266-4.2617 1.4219-5.2109l16.574-8.9961c1.4219-0.94531 3.3164-0.47266 4.2617 0.94531 3.7891 4.7344 10.418 6.1562 16.102 3.3164l14.68-7.5781c8.5234-4.7344 13.262-15.156 9.4727-24.152-4.2617-10.418-16.574-14.68-26.047-9.4727l-10.891 5.6836c-20.363 10.891-46.883 5.6836-59.672-13.734-13.734-20.363-8.0508-47.359 10.891-61.094l-8.0508-17.047c-0.94531-1.8945-0.47266-4.2617 1.4219-5.2109l16.574-8.5234c1.8945-0.94531 4.2617-0.47266 5.2109 1.4219l8.9961 16.574c17.523-8.0508 37.887-1.8945 48.305 13.734 0.94531 1.8945 0.47266 4.2617-1.4219 5.2109l-16.574 8.9961c-1.4219 0.94531-3.3164 0.47266-4.2617-0.94531-3.7891-4.7344-10.418-6.1562-16.102-3.3164l-14.68 7.5781c-8.5234 4.7344-13.262 14.68-9.4727 24.152 4.2617 10.418 16.574 14.68 26.047 9.4727l12.312-6.6289c23.207-12.312 52.094-2.3672 62.512 22.73 8.0508 18.941 0.47266 40.727-15.629 53.043z" fill="#638cbc"/>
</svg>
