<?xml version="1.0" encoding="UTF-8"?>
<svg width="752pt" height="752pt" version="1.1" viewBox="0 0 752 752" xmlns="http://www.w3.org/2000/svg">
 <g fill="#f67f80">
  <path d="m276.55 503.39v36.938c31.73-19.418 62.984-39.309 94.715-58.723l5.6836-1.4219h141.6c50.199-2.8398 44.988-51.148 44.988-86.664v-108.45c0-30.781-15.156-54.461-48.777-55.41-22.258-0.47266-44.043 0-66.301 0h-192.27c-30.781 0-61.094 7.1055-63.461 44.988-1.4219 22.73 0 45.938 0 68.668 0 29.363-0.94531 58.723 0 87.613 1.4219 40.254 28.887 47.832 60.617 49.254h11.367c6.6289 0 11.84 5.6836 11.84 11.84v11.367zm-23.68 0.47266c-17.051 0-34.098-0.47266-49.727-9.4727-21.785-12.785-33.152-35.047-34.098-59.672-1.4219-37.414 0-74.824 0-112.24 0-29.836-5.2109-64.406 14.68-89.98 19.891-26.047 48.777-26.52 78.141-26.52h226.84c26.992 0 54.461-1.8945 76.246 17.996 26.047 24.152 22.258 57.777 22.258 89.98 0 37.414 0.47266 75.301 0 112.71-0.47266 41.676-25.102 74.352-68.668 76.719h-137.81c-33.625 20.836-107.03 66.301-109.87 68.195-7.5781 4.7344-17.996-1.4219-17.996-10.418 0.003906-2.8359 0.003906-41.672 0.003906-57.301z"/>
  <path d="m378.84 456.51c-3.7891 0.47266-7.5781-1.4219-9.9453-5.6836-18.941-35.992-57.777-43.098-84.297-71.039-21.785-22.73-30.309-62.512-11.84-89.508 15.156-21.785 43.098-30.309 68.195-25.102 17.051 3.3164 29.363 11.84 37.887 24.152 8.5234-12.785 22.258-21.312 39.781-24.152 24.625-3.7891 51.621 4.2617 66.301 25.574 18.941 27.941 9.9453 68.668-13.262 91.402-26.992 26.047-63.934 33.625-82.875 69.145-1.8945 3.7891-5.6836 5.6836-9.9453 5.2109z"/>
 </g>
</svg>
