<?xml version="1.0" encoding="UTF-8"?>
<svg width="752pt" height="752pt" version="1.1" viewBox="0 0 752 752" xmlns="http://www.w3.org/2000/svg">
 <g fill="#033859" fill-rule="evenodd">
  <path d="m583.19 509.2c0 4.0859-3.3164 7.3984-7.3984 7.3984-4.0859 0-7.3984-3.3164-7.3984-7.3984 0-4.0859 3.3164-7.3984 7.3984-7.3984 4.0859 0 7.3984 3.3164 7.3984 7.3984z"/>
  <path d="m183.61 509.2c0 4.0859-3.3164 7.3984-7.3984 7.3984-4.0859 0-7.3984-3.3164-7.3984-7.3984 0-4.0859 3.3164-7.3984 7.3984-7.3984 4.0859 0 7.3984 3.3164 7.3984 7.3984z"/>
  <path d="m361.2 509.2c0 4.0859-3.3164 7.3984-7.3984 7.3984-4.0859 0-7.3984-3.3164-7.3984-7.3984 0-4.0859 3.3164-7.3984 7.3984-7.3984 4.0859 0 7.3984 3.3164 7.3984 7.3984z"/>
  <path d="m435.2 546.19c4.0859 0 7.3984-3.3164 7.3984-7.3984 0-4.0859-3.3164-7.3984-7.3984-7.3984l-118.39-0.003906c-4.0859 0-7.3984 3.3164-7.3984 7.3984 0 4.0859 3.3164 7.3984 7.3984 7.3984"/>
  <path d="m472.2 538.79c0 4.0859-3.3164 7.3984-7.3984 7.3984-4.0859 0-7.3984-3.3164-7.3984-7.3984 0-4.0859 3.3164-7.3984 7.3984-7.3984 4.0859 0 7.3984 3.3164 7.3984 7.3984z"/>
  <path d="m294.6 538.79c0 4.0859-3.3164 7.3984-7.3984 7.3984-4.0859 0-7.3984-3.3164-7.3984-7.3984 0-4.0859 3.3164-7.3984 7.3984-7.3984 4.0859 0 7.3984 3.3164 7.3984 7.3984z"/>
  <path d="m231.92 501.79c-3.8164-4.2695-6.8281-9.2852-8.7852-14.801l-32.125 0.003906c-12.262 0-22.199-9.9375-22.199-22.199v-59.199c0-12.262 9.9375-22.199 22.199-22.199v-66.598c0-12.262 9.9375-22.199 22.199-22.199h8.6641c-0.82031-2.3164-1.2656-4.8008-1.2656-7.3984v-59.199c0-12.262 9.9375-22.199 22.199-22.199h125.79c12.262 0 22.199 9.9375 22.199 22.199v59.199c0 5.6836-2.1367 10.871-5.6523 14.801 3.5156 3.9297 5.6523 9.1172 5.6523 14.801v66.598h14.801v-81.398c0-12.262 9.9375-22.199 22.199-22.199h81.723c11.418 0 22.191 5.2695 29.199 14.281 10.457 13.445 27.543 35.406 36.68 47.156 5.0469 6.4883 7.793 14.488 7.793 22.711v93.445c0 16.348-13.254 29.598-29.598 29.598h-17.328c-1.9531 5.5117-4.9648 10.531-8.7852 14.801h18.715c4.0859 0 7.3984 3.3164 7.3984 7.3984 0 4.0859-3.3164 7.3984-7.3984 7.3984h-162.8c-4.0859 0-7.3984-3.3164-7.3984-7.3984 0-4.0859 3.3164-7.3984 7.3984-7.3984h77.91c-3.8164-4.2695-6.8281-9.2852-8.7852-14.801h-145.65c-1.9531 5.5117-4.9648 10.531-8.7852 14.801h26.113c4.0859 0 7.3984 3.3164 7.3984 7.3984 0 4.0859-3.3164 7.3984-7.3984 7.3984h-118.39c-4.0859 0-7.3984-3.3164-7.3984-7.3984 0-4.0859 3.3164-7.3984 7.3984-7.3984zm33.086-59.199c16.34 0 29.598 13.262 29.598 29.598 0 16.34-13.262 29.598-29.598 29.598-16.34 0-29.598-13.262-29.598-29.598 0-16.34 13.262-29.598 29.598-29.598zm229.39 0c16.34 0 29.598 13.262 29.598 29.598 0 16.34-13.262 29.598-29.598 29.598-16.34 0-29.598-13.262-29.598-29.598 0-16.34 13.262-29.598 29.598-29.598zm-125.8-133.19h-155.39c-4.0859 0-7.3984 3.3164-7.3984 7.3984v66.598h170.19v-66.598c0-4.0859-3.3164-7.3984-7.3984-7.3984zm140.92-14.801h-37.32c-4.0859 0-7.3984 3.3164-7.3984 7.3984v51.797c0 8.1758 6.6211 14.801 14.801 14.801h88.797v-4.6484c0-4.9336-1.6406-9.7305-4.6758-13.621-9.1367-11.758-26.223-33.719-36.672-47.156-4.2109-5.4102-10.68-8.5703-17.523-8.5703zm-266.71 0h125.79c4.0859 0 7.3984-3.3164 7.3984-7.3984v-59.199c0-4.0859-3.3164-7.3984-7.3984-7.3984h-125.79c-4.0859 0-7.3984 3.3164-7.3984 7.3984v59.199c0 4.0859 3.3164 7.3984 7.3984 7.3984"/>
 </g>
</svg>
